<svg width="161" height="32" viewBox="0 0 161 32" fill="none" xmlns="http://www.w3.org/2000/svg">
<path d="M73.2477 4V6.66667H74.6982V4H73.2477Z" fill="#232323"/>
<path d="M73.2477 9.33333V12H74.6982V9.33333H73.2477Z" fill="#232323"/>
<path d="M73.2477 14.6667V17.3333H74.6982V14.6667H73.2477Z" fill="#232323"/>
<path d="M73.2477 20V22.6667H74.6982V20H73.2477Z" fill="#232323"/>
<path d="M73.2477 25.3333V28H74.6982V25.3333H73.2477Z" fill="#232323"/>
<path d="M63.0225 14.0165V12.0331H60.4265V8.99173H57.9624V12.0331H56.1081V14.0165H57.9624V21.5124C57.9624 22.2782 58.1354 22.9146 58.4816 23.4215C58.8277 23.9284 59.281 24.303 59.8414 24.5455C60.4018 24.7879 61.0061 24.9036 61.6545 24.8926C62.05 24.8871 62.3797 24.854 62.6434 24.7934C62.9071 24.7383 63.1104 24.6832 63.2532 24.6281L62.8082 22.5868C62.7258 22.6033 62.6104 22.6253 62.4621 22.6529C62.3137 22.6804 62.1407 22.6942 61.9429 22.6942C61.6737 22.6942 61.4237 22.6529 61.1929 22.5702C60.9677 22.4821 60.7836 22.3196 60.6408 22.0826C60.4979 21.8402 60.4265 21.4793 60.4265 21V14.0165H63.0225Z" fill="#232323"/>
<path d="M10.3592 12.0331V24.7273H12.8233V16.9008C12.8233 16.3278 12.9414 15.8237 13.1777 15.3884C13.4194 14.9532 13.7353 14.6143 14.1254 14.3719C14.521 14.124 14.9523 14 15.4193 14C16.106 14 16.6637 14.2094 17.0922 14.6281C17.5208 15.0468 17.7351 15.6006 17.7351 16.2893V24.7273H20.1909V16.6364C20.1909 15.865 20.4134 15.2342 20.8585 14.7438C21.3035 14.2479 21.9271 14 22.7292 14C23.3775 14 23.9352 14.1928 24.4022 14.5785C24.8692 14.9642 25.1027 15.5868 25.1027 16.4463V24.7273H27.5668V16.2149C27.5668 14.7603 27.2014 13.6722 26.4707 12.9504C25.7455 12.2286 24.8087 11.8678 23.6605 11.8678C22.7484 11.8678 21.9628 12.0716 21.3035 12.4793C20.6442 12.8815 20.1635 13.4215 19.8613 14.0992H19.7294C19.4547 13.405 19.0289 12.8595 18.452 12.4628C17.8806 12.0661 17.1719 11.8678 16.3258 11.8678C15.4907 11.8678 14.7737 12.0661 14.1749 12.4628C13.576 12.854 13.1447 13.3994 12.881 14.0992H12.7244V12.0331H10.3592Z" fill="#232323"/>
<path d="M38.8881 12.0331V19.4628C38.8936 20.1846 38.7425 20.7796 38.4349 21.2479C38.1327 21.7163 37.7509 22.0661 37.2893 22.2975C36.8333 22.5289 36.3746 22.6446 35.9131 22.6446C35.1494 22.6446 34.5285 22.3884 34.0506 21.876C33.5726 21.3636 33.3336 20.6749 33.3336 19.8099V12.0331H30.8695V20.1074C30.8695 21.1543 31.0453 22.0331 31.3969 22.7438C31.754 23.4545 32.243 23.9917 32.8638 24.3554C33.4902 24.7135 34.2099 24.8926 35.023 24.8926C35.9735 24.8926 36.7674 24.6694 37.4047 24.2231C38.0475 23.7714 38.5145 23.2066 38.8057 22.5289H38.9376V24.7273H41.3605V12.0331H38.8881Z" fill="#232323"/>
<path d="M54.157 15.1322L51.9236 15.5289C51.8303 15.2424 51.6819 14.9697 51.4786 14.7107C51.2808 14.4518 51.0116 14.2397 50.671 14.0744C50.3304 13.9091 49.9046 13.8264 49.3936 13.8264C48.6959 13.8264 48.1135 13.9835 47.6465 14.2975C47.1795 14.6061 46.946 15.0055 46.946 15.4959C46.946 15.9201 47.1025 16.2617 47.4157 16.5207C47.7289 16.7796 48.2343 16.9917 48.9321 17.157L50.943 17.6198C52.1077 17.8898 52.9758 18.3058 53.5472 18.8678C54.1186 19.4298 54.4042 20.1598 54.4042 21.0579C54.4042 21.8182 54.1845 22.4959 53.7449 23.0909C53.3109 23.6804 52.7038 24.1432 51.9236 24.4793C51.149 24.8154 50.2507 24.9835 49.2288 24.9835C47.8113 24.9835 46.6548 24.6804 45.7592 24.0744C44.8637 23.4628 44.3143 22.595 44.111 21.4711L46.4927 21.1074C46.641 21.73 46.946 22.2011 47.4075 22.5207C47.869 22.8347 48.4706 22.9917 49.2123 22.9917C50.0199 22.9917 50.6655 22.8237 51.149 22.4876C51.6325 22.146 51.8742 21.73 51.8742 21.2397C51.8742 20.843 51.7259 20.5096 51.4292 20.2397C51.138 19.9697 50.6902 19.7658 50.0859 19.6281L47.9431 19.157C46.7619 18.8871 45.8883 18.4573 45.3225 17.8678C44.7621 17.2782 44.4818 16.5317 44.4818 15.6281C44.4818 14.8788 44.6906 14.2231 45.1082 13.6612C45.5257 13.0992 46.1026 12.6612 46.8388 12.3471C47.575 12.0275 48.4184 11.8678 49.3689 11.8678C50.7369 11.8678 51.8138 12.1653 52.5994 12.7603C53.3851 13.3499 53.9043 14.1405 54.157 15.1322Z" fill="#232323"/>
<path fill-rule="evenodd" clip-rule="evenodd" d="M84.5299 7.80165V24.7273H87.0765V18.3223H90.5378C90.5929 18.3223 90.6476 18.3219 90.7018 18.3212L94.131 24.7273H97.0318L93.2964 17.8868C93.4694 17.8216 93.635 17.7492 93.7931 17.6694C94.6611 17.2342 95.3094 16.6253 95.738 15.843C96.172 15.0551 96.389 14.1432 96.389 13.1074C96.389 12.0661 96.1748 11.1488 95.7462 10.3554C95.3177 9.55646 94.6694 8.93112 93.8013 8.47934C92.9387 8.02754 91.8536 7.80165 90.546 7.80165H84.5299ZM87.0765 16.124H90.307C91.1311 16.124 91.8014 16.0055 92.3179 15.7686C92.8398 15.5317 93.2217 15.1873 93.4634 14.7355C93.7051 14.2837 93.826 13.741 93.826 13.1074C93.826 12.4683 93.7024 11.9146 93.4552 11.4463C93.2134 10.978 92.8316 10.6198 92.3096 10.3719C91.7932 10.1185 91.1147 9.99173 90.274 9.99173H87.0765V16.124Z" fill="#232323"/>
<path fill-rule="evenodd" clip-rule="evenodd" d="M101.365 24.1818C102.266 24.7163 103.34 24.9835 104.587 24.9835C105.51 24.9835 106.331 24.843 107.051 24.562C107.776 24.2755 108.378 23.876 108.856 23.3636C109.339 22.8457 109.675 22.2424 109.861 21.5537L107.529 21.1322C107.381 21.5289 107.166 21.8622 106.886 22.1322C106.606 22.4022 106.274 22.6061 105.889 22.7438C105.504 22.876 105.079 22.9421 104.612 22.9421C103.892 22.9421 103.263 22.7879 102.724 22.4793C102.186 22.1653 101.766 21.7107 101.464 21.1157C101.187 20.5616 101.04 19.8977 101.021 19.124H110.018V18.2479C110.018 17.0964 109.864 16.1185 109.556 15.314C109.249 14.5041 108.828 13.8457 108.296 13.3388C107.763 12.832 107.161 12.46 106.491 12.2231C105.82 11.9862 105.128 11.8678 104.414 11.8678C103.238 11.8678 102.211 12.146 101.332 12.7025C100.458 13.2589 99.7768 14.033 99.2879 15.0248C98.8044 16.0165 98.5626 17.1625 98.5626 18.4628C98.5626 19.7796 98.8044 20.9284 99.2879 21.9091C99.7768 22.8843 100.469 23.6419 101.365 24.1818ZM101.025 17.2727C101.054 16.7271 101.19 16.2174 101.431 15.7438C101.711 15.1983 102.106 14.7576 102.617 14.4215C103.134 14.0799 103.738 13.9091 104.43 13.9091C105.068 13.9091 105.623 14.0551 106.095 14.3471C106.573 14.6391 106.944 15.0386 107.208 15.5455C107.471 16.0468 107.603 16.6226 107.603 17.2727H101.025Z" fill="#232323"/>
<path fill-rule="evenodd" clip-rule="evenodd" d="M116.436 25.0083C115.634 25.0083 114.908 24.8595 114.26 24.562C113.612 24.2589 113.098 23.8209 112.719 23.2479C112.345 22.6749 112.159 21.9724 112.159 21.1405C112.159 20.4242 112.296 19.8347 112.571 19.3719C112.845 18.9091 113.216 18.5427 113.683 18.2727C114.15 18.0028 114.672 17.7989 115.249 17.6612C115.826 17.5234 116.414 17.4187 117.013 17.3471L118.859 17.1322C119.331 17.0716 119.675 16.9752 119.889 16.843C120.103 16.7107 120.21 16.4959 120.21 16.1983V16.1405C120.21 15.4187 120.007 14.8595 119.6 14.4628C119.199 14.0661 118.6 13.8678 117.804 13.8678C116.974 13.8678 116.32 14.0523 115.842 14.4215C115.37 14.7851 115.043 15.1901 114.862 15.6364L112.546 15.1074C112.821 14.3361 113.222 13.7135 113.749 13.2397C114.282 12.7603 114.895 12.4132 115.587 12.1983C116.279 11.978 117.007 11.8678 117.771 11.8678C118.276 11.8678 118.812 11.9284 119.378 12.0496C119.949 12.1653 120.482 12.3802 120.977 12.6942C121.477 13.0083 121.886 13.4573 122.205 14.0413C122.523 14.6198 122.683 15.3719 122.683 16.2975V24.7273H120.276V22.9917H120.177C120.018 23.3113 119.779 23.6253 119.46 23.9339C119.142 24.2424 118.732 24.4986 118.232 24.7025C117.732 24.9063 117.133 25.0083 116.436 25.0083ZM116.971 23.0248C117.653 23.0248 118.235 22.8898 118.719 22.6198C119.208 22.3499 119.578 21.9972 119.831 21.562C120.089 21.1212 120.218 20.6501 120.218 20.1488V18.5124C120.131 18.6005 119.96 18.6832 119.707 18.7603C119.46 18.832 119.177 18.8953 118.859 18.9504C118.54 19 118.23 19.0468 117.927 19.0909C117.625 19.1295 117.372 19.1625 117.169 19.1901C116.691 19.2507 116.254 19.3526 115.859 19.4959C115.469 19.6391 115.156 19.8457 114.919 20.1157C114.689 20.3802 114.573 20.7328 114.573 21.1736C114.573 21.7851 114.798 22.2479 115.249 22.562C115.7 22.8705 116.274 23.0248 116.971 23.0248Z" fill="#232323"/>
<path fill-rule="evenodd" clip-rule="evenodd" d="M127.967 24.1901C128.769 24.7135 129.681 24.9752 130.703 24.9752C131.472 24.9752 132.099 24.8457 132.582 24.5868C133.066 24.3278 133.445 24.0248 133.72 23.6777C134 23.3306 134.214 23.022 134.362 22.7521H134.568V24.7273H136.975V7.80165H134.511V14.0909H134.362C134.214 13.8264 134.005 13.5207 133.736 13.1736C133.472 12.8264 133.099 12.5234 132.615 12.2645C132.137 12 131.505 11.8678 130.72 11.8678C129.703 11.8678 128.794 12.1267 127.992 12.6446C127.19 13.1625 126.558 13.9091 126.096 14.8843C125.64 15.8595 125.412 17.033 125.412 18.405C125.412 19.7769 125.638 20.9532 126.088 21.9339C126.544 22.9091 127.171 23.6612 127.967 24.1901ZM133.044 22.3058C132.555 22.6804 131.956 22.8678 131.247 22.8678C130.516 22.8678 129.901 22.6722 129.401 22.281C128.907 21.8843 128.533 21.3471 128.28 20.6694C128.028 19.9917 127.901 19.2286 127.901 18.3802C127.901 17.5427 128.025 16.7906 128.272 16.124C128.525 15.4573 128.898 14.9311 129.393 14.5455C129.887 14.1598 130.506 13.9669 131.247 13.9669C131.967 13.9669 132.571 14.1515 133.06 14.5207C133.549 14.8898 133.92 15.405 134.173 16.0661C134.426 16.7273 134.552 17.4986 134.552 18.3802C134.552 19.2727 134.423 20.0551 134.165 20.7273C133.912 21.3994 133.538 21.9256 133.044 22.3058Z" fill="#232323"/>
<path d="M149.977 15.1322L147.744 15.5289C147.651 15.2424 147.502 14.9697 147.299 14.7107C147.101 14.4518 146.832 14.2397 146.491 14.0744C146.151 13.9091 145.725 13.8264 145.214 13.8264C144.516 13.8264 143.934 13.9835 143.467 14.2975C143 14.6061 142.766 15.0055 142.766 15.4959C142.766 15.9201 142.923 16.2617 143.236 16.5207C143.549 16.7796 144.055 16.9917 144.752 17.157L146.763 17.6198C147.928 17.8898 148.796 18.3058 149.368 18.8678C149.939 19.4297 150.225 20.1598 150.225 21.0579C150.225 21.8182 150.005 22.4959 149.565 23.0909C149.131 23.6804 148.524 24.1432 147.744 24.4793C146.969 24.8154 146.071 24.9835 145.049 24.9835C143.632 24.9835 142.475 24.6804 141.58 24.0744C140.684 23.4628 140.135 22.595 139.931 21.4711L142.313 21.1074C142.461 21.73 142.766 22.2011 143.228 22.5207C143.689 22.8347 144.291 22.9917 145.033 22.9917C145.84 22.9917 146.486 22.8237 146.969 22.4876C147.453 22.146 147.695 21.73 147.695 21.2397C147.695 20.843 147.546 20.5096 147.25 20.2397C146.958 19.9697 146.511 19.7658 145.906 19.6281L143.764 19.157C142.582 18.8871 141.709 18.4573 141.143 17.8678C140.582 17.2782 140.302 16.5317 140.302 15.6281C140.302 14.8788 140.511 14.2231 140.929 13.6612C141.346 13.0992 141.923 12.6612 142.659 12.3471C143.395 12.0275 144.239 11.8678 145.189 11.8678C146.557 11.8678 147.634 12.1653 148.42 12.7603C149.205 13.3499 149.725 14.1405 149.977 15.1322Z" fill="#232323"/>
<path fill-rule="evenodd" clip-rule="evenodd" d="M0 2.90909C0 1.30245 1.29878 0 2.9009 0H158.099C159.701 0 161 1.30245 161 2.90909V29.0909C161 30.6976 159.701 32 158.099 32H2.9009C1.29878 32 0 30.6976 0 29.0909V2.90909ZM2.9009 1.45455H158.099C158.9 1.45455 159.55 2.10577 159.55 2.90909V29.0909C159.55 29.8942 158.9 30.5455 158.099 30.5455H2.9009C2.09984 30.5455 1.45045 29.8942 1.45045 29.0909V2.90909C1.45045 2.10577 2.09984 1.45455 2.9009 1.45455Z" fill="#232323"/>
</svg>
